<svg id="Layer_1" data-name="Layer 1" xmlns="http://www.w3.org/2000/svg" viewBox="0 0 648.18 365.19"><defs><style>.cls-1{stroke:#fff;}.cls-1,.cls-2{stroke-miterlimit:10;stroke-width:0.5px;}.cls-2,.cls-3{fill:#fff;}.cls-2{stroke:#000;}</style></defs><path d="M426.79.75a85.91,85.91,0,0,1,22.62,2.76,52,52,0,0,1,18.82,9,37.48,37.48,0,0,1,14.71,27.73,70.32,70.32,0,0,1-6.08,34.34,42.79,42.79,0,0,1-3.05,5.33l-2.39,3.73c-3,4.74-6.15,9.65-9.41,14.33a40.16,40.16,0,0,1-4.14,4.8c-.81.85-1.64,1.73-2.43,2.63l-.69.79a48.42,48.42,0,0,0-3.89,4.86,12.93,12.93,0,0,1-6.75,5.44,4.58,4.58,0,0,0-2.52,2.8c-1.09,4.16-4.14,6.33-7.27,8.05a5.78,5.78,0,0,0-2.38,2c-2.33,4.09-6.06,6.44-10,8.92l-1,.62a4.15,4.15,0,0,0-.94.93,4.69,4.69,0,0,1-.49.57c-.88.81-1.71,1.68-2.51,2.53-2.18,2.32-4.25,4.51-6.94,4.93l-.16,0-.12.12c-.78.8-1.48,1.56-2.15,2.27-1.41,1.5-2.63,2.79-4,3.95-2.18,1.89-4.5,3.56-7.09,5.39-1.42,1-2.93,2-4.38,2.88-.73.46-1.46.92-2.18,1.39l-.17.12a6.33,6.33,0,0,0-1.16.86,9.82,9.82,0,0,0-.76.83,6,6,0,0,1-1.07,1.07l-3.18,2.24c-6.53,4.58-13.28,9.32-20,13.87-3.69,2.5-7.72,5-12.7,7.86a17.6,17.6,0,0,1-3.85,1.46l-1.33.4c-.44.14-.91.26-1.36.37-1.93.48-4.12,1-5,3.63a6.33,6.33,0,0,1-1.1.16l-.19,0c-.23,0-.48,0-.81,0h-2.62l.5.77,1,1.6-.1,0c-1,.48-1.74.88-2.44,1.27a1.35,1.35,0,0,0-.42.44h-.2c-1.64,0-2.68,1-3.69,1.92a5.17,5.17,0,0,1-2.58,1.64,28.54,28.54,0,0,0-3.48.87c-.58.17-1.18.35-1.82.52l-.2,0-.1.18c-1.54,2.56.24,4.17,1.8,5.59.31.27.62.55.92.85a100.15,100.15,0,0,0,21,16.07c3.24,1.84,6.5,3.77,9.66,5.64,5.06,3,10.29,6.06,15.54,8.89,4.73,2.55,9.69,4.82,14.49,7,1.94.89,3.95,1.81,5.92,2.74l2.08,1c6.69,3.15,13.6,6.42,20.44,9.56,1.34.61,2.73,1.13,4.08,1.63,1,.38,2.07.77,3.08,1.2l12.64,5.36c7.42,3.16,15.09,6.43,22.66,9.57,2.26.94,4.6,1.75,6.86,2.54,2,.71,4.13,1.44,6.16,2.26a8.29,8.29,0,0,1,2,1.36,10.74,10.74,0,0,0,1.87,1.33l.08,0c4.44,2.32,9,4.72,13.69,6.81l1.14.52c3.06,1.4,6.23,2.84,9.87,2.84.38,0,.77,0,1.14,0h.13a6,6,0,0,1,2.63,1.12c.38.23.77.47,1.15.67,1.94,1,4.23,2.21,6.53,3.55a12,12,0,0,0,2.55,1,6.34,6.34,0,0,1,3.68,2.09.64.64,0,0,0,.55.26,4.46,4.46,0,0,0,1.15-.28l.59-.18,3.42,3.35.61.59.22-.82.32-1.13.12-.44.47.12c.48.1.92.2,1.08.45a1.57,1.57,0,0,1,0,1.08.78.78,0,0,0,.19.68s.56.72,1,.72h.15l.13-.08a18.33,18.33,0,0,0,1.63-1.23l.24-.19.27.37a26.35,26.35,0,0,0,2,2.52,2.38,2.38,0,0,0,1.57.55,1.27,1.27,0,0,0,.8-.23c.55-.45.82-.54.94-.54s.56.56.85,1.1c.38.74,1.46.89,2.61,1a11.83,11.83,0,0,1,1.22.21l.2.05a1.59,1.59,0,0,0,.18.4c.34.54.88,1.26,1.64,1.26.54,0,1-.36,1.51-1.1a.74.74,0,0,1,.28-.19,1.21,1.21,0,0,0,.16.72,3.73,3.73,0,0,0,1.6,1.72c1.41.55,2.85,1.05,4.25,1.54s2.92,1,4.36,1.58c.9.35,1.82.83,2.71,1.28a15,15,0,0,0,5.35,2,5.23,5.23,0,0,1,2.42,1.07,5.48,5.48,0,0,0,3.08,1.19,4.23,4.23,0,0,0,.7-.06h.15c.74,0,1.78.83,2.61,1.5l.6.48.09.07.11,0,1.2.25c1.14.23,2.32.48,3.47.74a.92.92,0,0,1,.45.33,6.67,6.67,0,0,1,.41.93c0,.15.11.3.17.45l.36.86.52-.77.87-1.29a6.08,6.08,0,0,0,1.35.78c.94.43,1.68.78,1.81,2,.1,1,2.31,1.66,3.23,1.73a15,15,0,0,1,4.15,1.14,14.26,14.26,0,0,0,5.12,1.24l.74,0h.17a6.32,6.32,0,0,1,2.6.93,13.37,13.37,0,0,0,1.68.77,11.59,11.59,0,0,1,1.15.53,5.73,5.73,0,0,0,2.57.83,3.13,3.13,0,0,0,1.87-.64l.11.09V340c0,1,0,1.73.06,2.48,0,.49.41.49,1.3.5H605l.54,0,.45,0H606a4.79,4.79,0,0,0,4.26,2.14,17.1,17.1,0,0,0,2.36-.21l.3,0a3.38,3.38,0,0,1,.47,0c3,0,8,3.44,9,6.95l.33,1.18.59-1.07.47-.85.26-.48,1,.41c1.06.44,2.16.89,3.29,1.25a19.14,19.14,0,0,1,6.47,3.16,35.86,35.86,0,0,0,8.88,5.31l-.1,0,.07.7.11,1.16.05.62c-1-1.06-2-1.92-3.19-1.92a3.06,3.06,0,0,0-2.09,1l-2-3.18-.25-.4-.41.23-.31.17-.32.18-.21.12,0,.24-.13.92-.15,1-1.32,0c-3.56,0-3.62-.43-3.94-2.85l-.09-.64-.6.25-3.17,1.33-.51.21-1.39-1.24-.15-.13H623c-3.65,0-7-1.09-10.22-2.14-1.27-.42-2.59-.85-3.89-1.2-1-.27-2-.52-3-.77a42.54,42.54,0,0,1-10-3.37l.05-.11.39-.74h-.83c-.39,0-.79,0-1.17.07s-.74.06-1.09.06a3.54,3.54,0,0,1-1.06-.14c-7.28-2.45-14.69-4.9-21.86-7.27-18.58-6.14-37.79-12.49-56.47-19.32-25.6-9.36-51.4-19.54-76.35-29.38l-13.08-5.15c-8.39-3.3-16.81-6.95-24.95-10.47-3.74-1.62-7.61-3.3-11.43-4.92l-3-1.24c-2.1-.85-4.27-1.73-6.32-2.75-2.47-1.23-4.93-2.6-7.31-3.93-1.44-.8-2.92-1.62-4.4-2.41a6.62,6.62,0,0,0-1.36-.51,7.29,7.29,0,0,1-1.17-.43L358.42,259c-2.64-1.41-5.36-2.86-8.06-4.26a13.4,13.4,0,0,0-2-.77,9.75,9.75,0,0,1-2-.81,21.14,21.14,0,0,1-2.63-1.94c-.43-.36-.88-.72-1.33-1.07a5.09,5.09,0,0,0-.7-.41,3,3,0,0,1-.4-.21l-1.11-.68c-1.8-1.1-3.6-2.2-5.39-3.32l-2-1.29c-.78-.51-1.58-1-2.39-1.53-8.22-5.05-14.33-9.82-19.23-15a1.11,1.11,0,0,0-.54-.27l-.25-.08-.43-.16-.19.41a60.46,60.46,0,0,0-5.19,16.58l-.53,3.34c-1.21,7.68-2.47,15.63-4.06,23.36a27.14,27.14,0,0,1-3.21,7.39l-.68,1.24a4.12,4.12,0,0,1-4,2.5,10.67,10.67,0,0,1-1.88-.2c-1.85-.35-3.75-.58-5.59-.8-.93-.11-1.86-.22-2.78-.35-1.6-.22-2.3-1.37-3.19-2.84-3-5-2.3-10.09-1.54-15.5.12-.87.24-1.75.35-2.63.23-1.9.41-3.84.59-5.71.3-3.13.61-6.36,1.13-9.5.65-3.91,1.54-7.86,2.39-11.69.4-1.81.81-3.62,1.19-5.44.11-.53.19-1.07.28-1.7,0-.32.09-.67.15-1.06l.14-.89-.83.36c-.91.4-1.78.8-2.63,1.19a45.25,45.25,0,0,1-5.09,2.13c-1.62.53-3.26,1.13-4.84,1.71-4.42,1.61-9,3.28-13.54,3.63a48.3,48.3,0,0,0-8,1.49,45.49,45.49,0,0,1-7.61,1.44c-.25,0-.5,0-.76,0a25.38,25.38,0,0,1-2.87-.22,26.43,26.43,0,0,0-2.94-.22,9.39,9.39,0,0,0-1.91.18,13,13,0,0,1-2.63.26,30.4,30.4,0,0,1-3.66-.29l-1.11-.13c-1.33-.14-2.7-.2-4-.25a31.25,31.25,0,0,1-7.2-.85,40,40,0,0,1-8-3.66c-.86-.47-1.75-1-2.63-1.41a12.52,12.52,0,0,1-2.15-1.51c-.34-.26-.67-.53-1-.78-2.2-1.62-4.28-3.15-4.43-6.21a6.56,6.56,0,0,0-1.68-3.37c-1.13-1.43-2-2.57-1.27-4.3a2.35,2.35,0,0,0-.22-1.87c-2.74-5-2.54-10.31.66-17.13.45-1,.87-1.92,1.28-2.87a47.62,47.62,0,0,1,3.09-6.24,38.34,38.34,0,0,1,4-5c.65-.72,1.32-1.46,2-2.21l1.23-1.51a36.36,36.36,0,0,1,2.57-3l1.41-1.42a88.5,88.5,0,0,1,7.36-6.86l.84-.67c3.63-2.9,7.39-5.9,11.51-7.89a41.41,41.41,0,0,0,5.6-3.43c1.1-.75,2.24-1.54,3.41-2.23,1-.6,2.07-1.14,3.1-1.66s2.14-1.07,3.17-1.69a10.58,10.58,0,0,0,1.66-1.3,8.63,8.63,0,0,1,1.74-1.31c.75-.39,1.48-.82,2.19-1.24a14.77,14.77,0,0,1,6.07-2.46,7.46,7.46,0,0,0,3.33-1.6,17.8,17.8,0,0,1,1.6-1c.87-.45,1.75-.92,2.62-1.39,2.51-1.34,5.12-2.73,7.77-3.84,5.52-2.32,11.19-4.54,16.68-6.68l5.64-2.21a5,5,0,0,1,.89-.23,3.7,3.7,0,0,0-.7,2.8,2.66,2.66,0,0,0,1.55,1.53l.65.32.06-.72,0-.24v-.13l.41-.1a8.58,8.58,0,0,0,1.76-.56,3,3,0,0,1,1.06-.17c.91,0,2.16-.11,2.54-1.75a5,5,0,0,1,1.1-.25c1-.18,2.11-.33,3.17-.49,2.2-.32,4.49-.66,6.7-1.15a6.26,6.26,0,0,0,2.45-1.46c.39-.31.8-.64,1.25-.95l.81-.56-.93-.32-1.55-.55.08-.06a5,5,0,0,0,1.59-1.67c3.05-6.52,4.42-13.6,5.74-20.44.32-1.66.66-3.37,1-5,.28-1.35.6-2.72.92-4,.43-1.84.88-3.74,1.23-5.64.07-.4.13-.8.18-1.21.22-1.77.42-3.3,2.25-3.9l1.48-.49a48.49,48.49,0,0,1,9.58-2.51l.21,0a7.29,7.29,0,0,1,3.3,1.53c.55.36,1.11.73,1.67,1a5.44,5.44,0,0,1,.85.59,7.63,7.63,0,0,0,1,.66c3.19,1.72,3.85,3.78,2.52,7.88a69,69,0,0,0-2.09,9.44c-.19,1.12-.38,2.25-.6,3.37-.3,1.61-.58,3.25-.85,4.83-.43,2.51-.88,5.11-1.43,7.63-.35,1.59,0,2.69,1,3.39l-1.77.62-1,.34.88.56,2.23,1.39-2.53,1.81-.34.25.18.38.2.4.12.26.16.33.37-.06,1.94-.29,7-1,0,.13a6,6,0,0,1-4.19,1.72,7.47,7.47,0,0,1-1.38-.13,2,2,0,0,0-.34,0,4.5,4.5,0,0,0-1.75.51,5.72,5.72,0,0,1-1.18.44c-1.59.29-2.08,1.09-2.46,2.56-2.16,8.32-4.61,17.22-7.72,28-1.37,4.76-2.84,9.58-4.26,14.24q-1.25,4.05-2.46,8.12a5.39,5.39,0,0,0-.18,1.32c0,.29,0,.63-.08,1l-.09.94.83-.45,3.05-1.68c2.05-1.12,4-2.18,5.91-3.25,14.77-8.29,28.48-18.55,41.74-28.48q3.64-2.73,7.3-5.45a362.61,362.61,0,0,0,50.59-44.87c11.15-12,18.83-23.22,24.19-35.26A40.31,40.31,0,0,0,462.59,45a9.09,9.09,0,0,0-3.1-7.51c-.69-.63-1.38-1.29-2.05-1.94-2.48-2.39-5-4.85-8.09-6.13-.83-.34-1.66-.71-2.5-1.08-3.93-1.73-8-3.52-12.54-3.52-.54,0-1.09,0-1.63.08a4.35,4.35,0,0,1-.51,0,10.84,10.84,0,0,1-2.76-.45,33.69,33.69,0,0,0-9.11-1.1c-2.69,0-5.41.21-8.05.41-.93.08-1.85.15-2.78.21C396,24.93,384,26,372,29.92c-6.38,2.1-12.8,4.45-19,6.72-3.12,1.15-6.35,2.33-9.53,3.46a149.41,149.41,0,0,0-29.81,14.36c-3.88,2.45-8,4.73-11.94,6.93s-7.89,4.4-11.72,6.79a144.85,144.85,0,0,0-15,11.19,35.43,35.43,0,0,0-5,5.52q-.75,1-1.5,1.89c-1.18,1.43-2.36,2.15-3.52,2.15s-2.53-.86-3.76-2.57c-4.41-6.1-3.71-15.26,1.56-20.41,2.34-2.29,4.94-4.41,7.46-6.46,2-1.61,4-3.27,5.94-5a47.19,47.19,0,0,1,9.77-6.33c1.26-.68,2.56-1.37,3.81-2.1l2.72-1.58c3.83-2.24,7.8-4.56,11.77-6.68,4.13-2.21,8.45-4.24,12.62-6.2l.56-.26,1.53-.73c5.41-2.55,11-5.19,16.6-7.59,1.7-.73,3.49-1.34,5.23-1.94a55.28,55.28,0,0,0,6.8-2.65,29,29,0,0,1,10.68-3.32,1.87,1.87,0,0,0,1-.32c2.82-2.25,6.32-3.17,9.7-4l1.92-.52c2.38-.66,4.77-1.44,7.07-2.2a89.52,89.52,0,0,1,12.89-3.52c5.79-1,13.43-2.18,21.13-2.94,5.49-.54,10.35-.8,14.85-.8m0-.5c-5,0-9.93.32-14.9.81-7.08.69-14.14,1.76-21.17,2.94-6.86,1.15-13.32,3.87-20,5.73-4,1.12-8.35,1.91-11.8,4.66a1.32,1.32,0,0,1-.71.21A29.75,29.75,0,0,0,347.35,18c-3.82,1.9-8.08,2.89-12,4.58-6.11,2.63-12.13,5.49-18.15,8.32C312.76,33,308.32,35,304,37.35c-4.91,2.62-9.7,5.47-14.51,8.27-4.64,2.69-9.6,4.79-13.66,8.49-4.36,4-9.22,7.38-13.42,11.48-5.54,5.41-6,14.94-1.61,21.06,1.34,1.86,2.74,2.78,4.16,2.78s2.62-.78,3.9-2.34c2.07-2.51,4-5.28,6.44-7.33a142.36,142.36,0,0,1,15-11.15C298,63.77,306.24,59.74,314,54.88a150,150,0,0,1,29.71-14.31c9.51-3.39,18.93-7,28.52-10.17,12.09-4,24.71-5,37.32-5.89,3.6-.24,7.2-.62,10.8-.62a33.55,33.55,0,0,1,9,1.08,11,11,0,0,0,2.89.47,5.24,5.24,0,0,0,.56,0c.53-.05,1.06-.08,1.58-.08,5.39,0,10.13,2.6,14.84,4.56,3.79,1.59,6.84,5.09,10,8a8.62,8.62,0,0,1,2.94,7.1,40.25,40.25,0,0,1-3.73,13.72c-5.88,13.21-14.32,24.57-24.1,35.12a365.12,365.12,0,0,1-50.53,44.81c-16,11.84-31.59,24.13-49,33.89-2.84,1.59-5.71,3.14-8.95,4.93a14.53,14.53,0,0,1,.24-2.27c2.23-7.45,4.57-14.88,6.72-22.36,2.68-9.31,5.29-18.64,7.73-28,.36-1.39.75-2,2.06-2.19,1-.18,2-.94,2.84-.94a1.06,1.06,0,0,1,.25,0,7.6,7.6,0,0,0,1.47.14,6.7,6.7,0,0,0,4.73-2l-.15-.89-9.45,1.41-.32-.66,3.14-2.25-2.86-1.79,2.94-1c-1.6-.48-2.33-1.37-1.9-3.34.91-4.13,1.5-8.32,2.3-12.48s1.34-8.64,2.67-12.74.86-6.53-2.76-8.48c-.65-.35-1.19-.91-1.84-1.25-1.72-.91-3.57-2.61-5.2-2.61l-.27,0c-3.79.45-7.49,1.82-11.16,3-2.59.86-2.37,3.34-2.76,5.5-.6,3.25-1.48,6.44-2.15,9.67-1.79,8.58-2.95,17.33-6.71,25.38-.41.86-1.46,1.42-2.22,2.12l2.39.84c-1.41,1-2.37,2.07-3.52,2.33-3.25.73-6.57,1.09-9.85,1.63-.53.09-1.43.25-1.47.5-.4,2.08-2.25,1.19-3.36,1.72a15.14,15.14,0,0,1-2.43.72l-.06.71c-2.37-1.15-1.13-2.71-.1-4.59a15.18,15.18,0,0,0-2,.47c-7.46,2.94-14.95,5.79-22.34,8.9-3.57,1.5-7,3.45-10.42,5.25-1.61.84-3.1,2.39-4.75,2.56-3.32.34-5.71,2.36-8.44,3.75-1.26.64-2.2,1.9-3.43,2.63-2,1.21-4.23,2.14-6.26,3.35-3,1.8-5.69,4.06-9,5.64-4.5,2.17-8.5,5.47-12.45,8.62a108,108,0,0,0-8.81,8.32c-1.39,1.39-2.56,3-3.84,4.51-2,2.41-4.37,4.63-6,7.27-1.79,2.84-3,6.09-4.4,9.16-2.71,5.77-3.92,11.58-.64,17.58a1.88,1.88,0,0,1,.19,1.43c-.87,2,.21,3.38,1.36,4.85a6.18,6.18,0,0,1,1.55,3c.16,3.26,2.36,4.91,4.64,6.58a24.91,24.91,0,0,0,3.23,2.33c3.52,1.82,7,4,10.72,5.11,3.59,1,7.53.72,11.31,1.12a43.55,43.55,0,0,0,4.82.42,13.82,13.82,0,0,0,2.74-.27,8.93,8.93,0,0,1,1.8-.17c1.9,0,3.88.44,5.81.44.27,0,.54,0,.8,0,5.26-.39,10.14-2.52,15.56-2.93,6.28-.48,12.38-3.36,18.51-5.36,2.54-.84,4.93-2.11,7.76-3.34-.18,1.14-.26,2-.43,2.73-1.2,5.72-2.62,11.4-3.58,17.15-.84,5-1.12,10.16-1.73,15.23-.75,6.23-2.35,12.47,1.27,18.45.9,1.5,1.69,2.82,3.54,3.08,2.79.38,5.59.63,8.35,1.14a11.22,11.22,0,0,0,2,.21,4.61,4.61,0,0,0,4.4-2.76c1.53-2.82,3.31-5.7,3.94-8.77,1.82-8.84,3.18-17.79,4.59-26.72a59.79,59.79,0,0,1,5.15-16.44c.29.11.49.12.59.23a92.45,92.45,0,0,0,19.34,15.1c1.48.92,2.92,1.9,4.4,2.83,2.15,1.34,4.33,2.67,6.5,4a11.84,11.84,0,0,1,1.05.59,41.57,41.57,0,0,0,4,3c1.24.72,2.77.93,4.05,1.59,4.73,2.45,9.4,5,14.12,7.49.79.42,1.74.52,2.53.94,3.91,2.1,7.74,4.37,11.72,6.35,3,1.51,6.24,2.68,9.36,4,12.13,5.15,24.14,10.57,36.39,15.39,29.74,11.71,59.44,23.57,89.45,34.54,25.89,9.47,52.2,17.81,78.34,26.59a3.83,3.83,0,0,0,1.22.17c.74,0,1.52-.13,2.26-.13l-.28.55c4.16,2.36,9,3.18,13.54,4.42s9.06,3.36,14.25,3.36h.35l1.63,1.46,4-1.67c.37,2.76.75,3.28,4.44,3.28l1.76,0c.11-.78.22-1.57.34-2.37l.62-.34,2.34,3.72a3,3,0,0,1,2.17-1.27c1.33,0,2.52,1.42,3.83,2.84-.13-1.38-.21-2.26-.3-3.25l3.61.89a1.46,1.46,0,0,0-.93-1,32.21,32.21,0,0,1-11.72-6.21,19.69,19.69,0,0,0-6.63-3.25c-1.6-.5-3.13-1.2-4.68-1.81-.07.14-.4.74-.94,1.72-1-3.66-6.12-7.32-9.47-7.32a4.56,4.56,0,0,0-.54,0,21.32,21.32,0,0,1-2.59.24,4.26,4.26,0,0,1-3.91-2c-.06-.09-.22-.12-.42-.12s-.69.06-1,.06h-.05a7.74,7.74,0,0,1-1.19-.05c-.07-.9-.05-1.8-.05-3.15h0s-.52-.49-.64-.49h0a2.75,2.75,0,0,1-1.83.75c-1.24,0-2.38-.91-3.55-1.33-1.5-.54-3-1.73-4.45-1.73H593q-.35,0-.69,0c-3.33,0-6-2.14-9.23-2.38-1-.07-2.72-.74-2.78-1.28-.25-2.5-2.71-2.12-3.71-3.55l-1.23,1.81a10.37,10.37,0,0,0-.62-1.45,1.29,1.29,0,0,0-.76-.55c-1.55-.36-3.12-.67-4.68-1-1.06-.81-2.39-2.08-3.51-2.08a1,1,0,0,0-.24,0,4.3,4.3,0,0,1-.61.05c-2.15,0-3.29-2.06-5.45-2.26-2.72-.24-5.26-2.17-7.93-3.22-2.84-1.11-5.77-2-8.61-3.12a3.37,3.37,0,0,1-1.35-1.5c-.19-.31,0-.83,0-1.25-.43.22-1,.34-1.26.7-.39.62-.76.87-1.09.87s-.84-.43-1.21-1a4.14,4.14,0,0,1-.32-1.29l-.37.61c-1.22-.3-3.13-.25-3.51-1-.47-.9-.81-1.37-1.29-1.37a2.25,2.25,0,0,0-1.25.65.82.82,0,0,1-.49.12,1.89,1.89,0,0,1-1.21-.4,36.66,36.66,0,0,1-2.55-3.25c-1,.8-1.59,1.3-2.23,1.71h0c-.09,0-.75-.58-.7-.77.63-2.31-1.24-1.91-2.35-2.42-.22.8-.4,1.44-.58,2.08l-3.63-3.55a16.55,16.55,0,0,1-1.88.52.17.17,0,0,1-.14-.05c-1.6-2.2-4.33-2-6.39-3.23s-4.35-2.41-6.55-3.55c-1.31-.68-2.72-1.85-4-1.85h-.17c-.37,0-.74,0-1.1,0-4,0-7.36-1.77-10.8-3.32-4.67-2.09-9.21-4.46-13.75-6.83-1.4-.73-2.49-2.14-3.92-2.72-4.29-1.72-8.75-3-13-4.79-11.81-4.9-23.54-10-35.31-14.93-2.36-1-4.82-1.76-7.14-2.83-7.53-3.46-15-7-22.52-10.53-6.81-3.21-13.76-6.18-20.38-9.75-8.53-4.59-16.77-9.73-25.2-14.53a100.39,100.39,0,0,1-20.92-16c-1.86-1.83-4.22-3.18-2.64-5.83,2-.54,3.6-1.11,5.26-1.38,2.5-.41,3.48-3.55,6.18-3.55a2.48,2.48,0,0,1,.38,0h0c.14,0,.28-.41.48-.52.79-.45,1.6-.86,2.41-1.26a2.82,2.82,0,0,1,.73-.1c-.44-.68-.78-1.21-1.47-2.26l1.7,0a7.76,7.76,0,0,0,.86,0c.59-.06,1.58-.12,1.67-.41,1-3,3.75-3.05,6.11-3.8a26.09,26.09,0,0,0,5.28-1.89c4.32-2.49,8.6-5.09,12.73-7.89,7.79-5.27,15.47-10.7,23.17-16.11a18.37,18.37,0,0,0,1.89-2,8.84,8.84,0,0,1,1.26-.92c2.2-1.42,4.45-2.77,6.58-4.28a87.81,87.81,0,0,0,7.12-5.42c2-1.74,3.75-3.78,6.15-6.25,3.89-.61,6.44-4.58,9.71-7.58.48-.45.82-1.11,1.36-1.45,4.21-2.67,8.55-5.16,11.14-9.72a5.61,5.61,0,0,1,2.19-1.78c3.49-1.92,6.43-4.22,7.52-8.36a4,4,0,0,1,2.2-2.46,13.43,13.43,0,0,0,7-5.63,53.92,53.92,0,0,1,4.54-5.6c2.18-2.51,4.72-4.76,6.6-7.47,4.11-5.91,7.92-12,11.81-18.08a41.82,41.82,0,0,0,3.08-5.39,70.55,70.55,0,0,0,6.13-34.59c-.89-11.52-5.76-20.94-14.9-28.08a52.49,52.49,0,0,0-19-9A86.7,86.7,0,0,0,426.79.25Z"/><path class="cls-1" d="M647.78,362.12a1.46,1.46,0,0,0-.93-1,32.21,32.21,0,0,1-11.72-6.21,19.69,19.69,0,0,0-6.63-3.25c-1.6-.5-3.13-1.2-4.68-1.81-.07.14-.4.74-.94,1.72-1.08-3.86-6.7-7.72-10-7.28-2.43.32-4.83.75-6.5-1.78-.16-.24-1,0-1.46-.06a7.74,7.74,0,0,1-1.19-.05c-.07-.9-.05-1.8-.05-3.15.09.07-.57-.54-.65-.48-2,1.71-3.65,0-5.38-.58s-3.18-1.85-4.67-1.72c-3.65.33-6.49-2.09-9.92-2.35-1-.07-2.72-.74-2.78-1.28-.25-2.5-2.71-2.12-3.71-3.55l-1.23,1.81a10.37,10.37,0,0,0-.62-1.45,1.29,1.29,0,0,0-.76-.55c-1.55-.36-3.12-.67-4.68-1-1.13-.87-2.58-2.27-3.75-2.06-2.57.44-3.7-2-6.06-2.21-2.72-.24-5.26-2.17-7.93-3.22-2.84-1.11-5.77-2-8.61-3.12a3.37,3.37,0,0,1-1.35-1.5c-.19-.31,0-.83,0-1.25-.43.22-1,.34-1.26.7-.91,1.42-1.64.9-2.3-.15a4.14,4.14,0,0,1-.32-1.29l-.37.61c-1.22-.3-3.13-.25-3.51-1-.79-1.51-1.2-1.81-2.54-.72a1.79,1.79,0,0,1-1.7-.28,36.66,36.66,0,0,1-2.55-3.25c-1,.8-1.59,1.3-2.23,1.71-.06,0-.76-.58-.71-.77.63-2.31-1.24-1.91-2.35-2.42-.22.8-.4,1.44-.58,2.08l-3.63-3.55c-.85.21-1.88.66-2,.47-1.6-2.2-4.33-2-6.39-3.23s-4.35-2.41-6.55-3.55c-1.37-.71-2.84-2-4.18-1.84-4.45.37-8.14-1.59-11.9-3.28-4.67-2.09-9.21-4.46-13.75-6.83-1.4-.73-2.49-2.14-3.92-2.72-4.29-1.72-8.75-3-13-4.79-11.81-4.9-23.54-10-35.31-14.93-2.36-1-4.82-1.76-7.14-2.83-7.53-3.46-15-7-22.52-10.53-6.81-3.21-13.76-6.18-20.38-9.75-8.53-4.59-16.77-9.73-25.2-14.53a100.39,100.39,0,0,1-20.92-16c-1.86-1.83-4.22-3.18-2.64-5.83,2-.54,3.6-1.11,5.26-1.38,2.61-.43,3.57-3.85,6.56-3.53.14,0,.29-.41.49-.52.79-.45,1.6-.86,2.41-1.26a2.82,2.82,0,0,1,.73-.1c-.44-.68-.78-1.21-1.47-2.26,1.16,0,1.87.05,2.56,0s1.58-.12,1.67-.41c1-3,3.75-3.05,6.11-3.8a26.09,26.09,0,0,0,5.28-1.89c4.32-2.49,8.6-5.09,12.73-7.89,7.79-5.27,15.47-10.7,23.17-16.11a18.37,18.37,0,0,0,1.89-2,8.84,8.84,0,0,1,1.26-.92c2.2-1.42,4.45-2.77,6.58-4.28a87.81,87.81,0,0,0,7.12-5.42c2-1.74,3.75-3.78,6.15-6.25,3.89-.61,6.44-4.58,9.71-7.58.48-.45.82-1.11,1.36-1.45,4.21-2.67,8.55-5.16,11.14-9.72a5.61,5.61,0,0,1,2.19-1.78c3.49-1.92,6.43-4.22,7.52-8.36a4,4,0,0,1,2.2-2.46,13.43,13.43,0,0,0,7-5.63,53.92,53.92,0,0,1,4.54-5.6c2.18-2.51,4.72-4.76,6.6-7.47,4.11-5.91,7.92-12,11.81-18.08a41.82,41.82,0,0,0,3.08-5.39,70.55,70.55,0,0,0,6.13-34.59c-.89-11.52-5.76-20.94-14.9-28.08a52.49,52.49,0,0,0-19-9c-12.41-3.35-25-3.22-37.65-2-7.08.69-14.14,1.76-21.17,2.94-6.86,1.15-13.32,3.87-20,5.73-4,1.12-8.35,1.91-11.8,4.66a1.32,1.32,0,0,1-.71.21A29.75,29.75,0,0,0,347.35,18c-3.82,1.9-8.08,2.89-12,4.58-6.11,2.63-12.13,5.49-18.15,8.32C312.76,33,308.32,35,304,37.35c-4.91,2.62-9.7,5.47-14.51,8.27-4.64,2.69-9.6,4.79-13.66,8.49-4.36,4-9.22,7.38-13.42,11.48-5.54,5.41-6,14.94-1.61,21.06,2.57,3.57,5.39,3.69,8.06.44,2.07-2.51,4-5.28,6.44-7.33a142.36,142.36,0,0,1,15-11.15C298,63.77,306.24,59.74,314,54.88a150,150,0,0,1,29.71-14.31c9.51-3.39,18.93-7,28.52-10.17,12.09-4,24.71-5,37.32-5.89,6.6-.45,13.22-1.34,19.78.46a9.71,9.71,0,0,0,3.45.45c6-.59,11.25,2.33,16.42,4.48,3.79,1.59,6.84,5.09,10,8a8.62,8.62,0,0,1,2.94,7.1,40.25,40.25,0,0,1-3.73,13.72c-5.88,13.21-14.32,24.57-24.1,35.12a365.12,365.12,0,0,1-50.53,44.81c-16,11.84-31.59,24.13-49,33.89-2.84,1.59-5.71,3.14-8.95,4.93a14.53,14.53,0,0,1,.24-2.27c2.23-7.45,4.57-14.88,6.72-22.36,2.68-9.31,5.29-18.64,7.73-28,.36-1.39.75-2,2.06-2.19,1.06-.2,2.15-1.1,3.09-.92a6.64,6.64,0,0,0,6.2-1.89l-.15-.89-9.45,1.41-.32-.66,3.14-2.25-2.86-1.79,2.94-1c-1.6-.48-2.33-1.37-1.9-3.34.91-4.13,1.5-8.32,2.3-12.48s1.34-8.64,2.67-12.74.86-6.53-2.76-8.48c-.65-.35-1.19-.91-1.84-1.25-1.81-1-3.77-2.79-5.47-2.59-3.79.45-7.49,1.82-11.16,3-2.59.86-2.37,3.34-2.76,5.5-.6,3.25-1.48,6.44-2.15,9.67-1.79,8.58-2.95,17.33-6.71,25.38-.41.86-1.46,1.42-2.22,2.12l2.39.84c-1.41,1-2.37,2.07-3.52,2.33-3.25.72-6.57,1.09-9.85,1.63-.53.09-1.43.25-1.47.5-.4,2.08-2.25,1.19-3.36,1.72a15.14,15.14,0,0,1-2.43.72l-.06.71c-2.37-1.15-1.13-2.71-.1-4.59a15.18,15.18,0,0,0-2,.47c-7.46,2.94-14.95,5.79-22.34,8.9-3.57,1.5-7,3.45-10.42,5.25-1.61.84-3.1,2.39-4.75,2.56-3.32.34-5.71,2.36-8.44,3.75-1.26.64-2.2,1.9-3.43,2.63-2,1.21-4.23,2.14-6.26,3.35-3,1.8-5.69,4.06-9,5.64-4.5,2.17-8.5,5.47-12.45,8.62a108,108,0,0,0-8.81,8.32c-1.39,1.39-2.56,3-3.84,4.51-2,2.41-4.37,4.63-6,7.27-1.79,2.84-3,6.09-4.4,9.16-2.71,5.77-3.92,11.58-.64,17.58a1.88,1.88,0,0,1,.19,1.43c-.87,2,.21,3.38,1.36,4.85a6.18,6.18,0,0,1,1.55,3c.16,3.26,2.36,4.91,4.64,6.58a24.91,24.91,0,0,0,3.23,2.33c3.52,1.82,7,4,10.72,5.11,3.59,1,7.53.72,11.31,1.12,2.52.27,4.9.7,7.56.15s5.62.45,8.41.25c5.26-.39,10.14-2.52,15.56-2.93,6.28-.48,12.38-3.36,18.51-5.36,2.54-.84,4.93-2.11,7.76-3.34-.18,1.14-.26,2-.43,2.73-1.2,5.72-2.62,11.4-3.58,17.15-.84,5-1.12,10.16-1.73,15.23-.75,6.23-2.35,12.47,1.27,18.45.9,1.5,1.69,2.82,3.54,3.08,2.79.38,5.59.63,8.35,1.14,3,.56,4.95.06,6.37-2.55,1.53-2.82,3.31-5.7,3.94-8.77,1.82-8.84,3.18-17.79,4.59-26.72a59.79,59.79,0,0,1,5.15-16.44c.29.11.49.12.59.23a92.45,92.45,0,0,0,19.34,15.1c1.48.92,2.92,1.9,4.4,2.83,2.15,1.34,4.33,2.67,6.5,4a11.84,11.84,0,0,1,1.05.59,41.57,41.57,0,0,0,4,3c1.24.72,2.77.93,4.05,1.59,4.73,2.45,9.4,5,14.12,7.49.79.42,1.74.52,2.53.94,3.91,2.1,7.74,4.37,11.72,6.35,3,1.51,6.24,2.68,9.36,4,12.13,5.15,24.14,10.57,36.39,15.39,29.74,11.71,59.44,23.57,89.45,34.54,25.89,9.47,52.2,17.81,78.34,26.59,1.05.35,2.32,0,3.48,0-.09.18-.19.36-.28.55,4.16,2.36,9,3.18,13.54,4.42s9.26,3.46,14.6,3.36l1.63,1.46,4-1.67c.42,3.15.85,3.38,6.2,3.25.11-.78.22-1.57.34-2.37l.62-.34,2.34,3.72c2.34-2.71,4-.56,6,1.57-.13-1.38-.21-2.26-.3-3.25Zm-342.62-209q-5.27,17.11-10.59,34.22c-.77,2.45-1.6,4.89-2.55,7.28a3.28,3.28,0,0,1-1.63,1.63c-14.48,6.23-29,12.28-44.5,15.6a187.6,187.6,0,0,1-21.34,2.82,63.61,63.61,0,0,1-11.87,0,34.87,34.87,0,0,1-8.58-2.17c-2.34-.86-2.56-2.72-1.13-4.83,10.43-15.39,24.06-27.39,39.35-37.74,16.52-11.19,34.26-19.92,52.79-27.17,3.66-1.43,7.25-3.05,10.9-4.5a33.31,33.31,0,0,1,3.88-1C308.17,143.08,306.7,148.12,305.16,153.15Z"/><path class="cls-2" d="M5.59,281.67l3.49-1.23c.05,2.76,1.19,4.43,4.2,5.18,2.39-4.74,4.79-9.44,7.14-14.16a24.67,24.67,0,0,0,2.23-5c.72-3,1.12-6.12,1.56-9.21.48-3.41.65-6.88,1.3-10.26,1.63-8.49,3.43-16.95,5.22-25.4.81-3.8,1.77-7.57,2.79-11.89,4.11,3.36,7.72,6.23,11.25,9.21,1.94,1.64,3.65,3.57,5.65,5.14s4.49,3,6.67,4.55c4.35,3.16,8.64,6.4,13,9.6,1,.74,2.06,1.41,3,2.16,4,3,7.78,6.24,11.85,9.1,6.45,4.53,13.29,8.53,19.55,13.31,11.58,8.86,24.18,16.2,36,24.77,9.15,6.67,19.26,12,28.56,18.47,4.43,3.1,9.2,5.72,13.83,8.54a24.6,24.6,0,0,0,3.07,1.66c2.59,1.08,5.61,1.53,6.71,4.75.1.31.65.48,1,.7,2,1.28,4,2.64,6.12,3.82,3,1.68,6.1,3.14,9.06,4.87s5.92,3.8,8.93,5.63c1.59,1,3.81,1.36,4.84,2.71,2.16,2.84,5.29,3.9,8.13,5.53,1.17.67,2.42,1.2,3.69,1.83l.78-.73a8.29,8.29,0,0,0,1.43,2.3c1.92,1.42,3.95,2.71,6,3.95a1.76,1.76,0,0,0,1.5-.05c.28-.14.37-.79.39-1.22,0-.73-.09-1.46-.14-2.18L245,348l2.87,2.56c-.16,1.1-.32,2.18-.45,3l3.27.27.94-1.57c1.37-.71,2.82,2.13,3.54.14-1.42-1.12-2.6-2-3.7-3-.88-.76-1.61-1.68-2.5-2.43-2.48-2.07-2.81-3.66-1.26-6.4-2.1-1.46-4.19-2.93-6.31-4.36-3.08-2.08-6.19-4.12-9.28-6.18-2.37-1.6-4.72-3.25-7.12-4.8-2-1.29-4.14-2.37-6.08-3.73a37.13,37.13,0,0,1-3.88-3.44c-.5-.45-.82-1.23-1.38-1.44-3.19-1.18-3.34-1.37-2.69-4.74-4-2.59-8.44-4.51-11.9-8.27-3.16-3.44-7.29-6-10.19-10.05a4.71,4.71,0,0,1-1,.37c-1.49.25-6.76-3.21-7.32-4.58a6.51,6.51,0,0,0-1.66-2.4c-3.23-2.84-8.08-3.89-9.53-8.68,0-.13-.24-.22-.37-.32-5.1-3.57-10.09-7.31-15.34-10.65-6.21-3.95-12.71-7.45-17.89-12.83a16.21,16.21,0,0,0-2.14-1.71c-15.33-11.24-30.69-22.44-46-33.74-3-2.24-5.65-5-8.72-7.2-5.64-3.95-11.6-7.42-16.57-12.31-2.29-2.26-5.12-4-7.57-6.09-4.84-4.16-9.66-8.35-14.32-12.72a4.51,4.51,0,0,1-1.17-3.74c.69-2.39,1.58-5,3.24-6.77,4.27-4.48,9-8.55,13.55-12.74,3-2.75,6-5.52,9.11-8.13,4.26-3.56,8.72-6.87,13-10.46,7.21-6.13,14.08-12.68,21.49-18.55,11.45-9.07,23.21-17.73,34.89-26.51,2.82-2.11,5.85-3.94,8.75-6q9.06-6.31,18.09-12.68c.54-.38,1.14-.67,1.65-1.07,3.21-2.49,6.25-5.25,9.65-7.44,3.2-2.06,6.62-4.15,10.24-5.11,4.16-1.09,8.69-4.88,8-9a54.75,54.75,0,0,0-3.83-12.06c-.86-2.09-2.63-3.8-4-5.65-1.24-1.64-2.59-2.94-5-2.39a61.29,61.29,0,0,1-6.9,1c-6.27.7-7.1,1.4-8.57,7.43a9.43,9.43,0,0,1-3.92,6c-10.44,7.39-20.7,15-31,22.67-7.07,5.26-14,10.68-21.06,16-1.83,1.37-4,2.3-5.76,3.78-5.33,4.59-10.51,9.35-15.74,14.05-1.45,1.31-2.84,2.69-4.35,3.94-4.28,3.53-8.69,6.92-12.91,10.54-4.73,4.06-9.28,8.33-14,12.45-1.18,1-2.55,1.86-4.37,3.15,1.25-6,2.15-11.35,3.48-16.55q5-19.62,10.35-39.16c1.69-6.19,3.74-12.29,5.68-18.42.87-2.75,1.89-5.45,2.78-8.2a1.82,1.82,0,0,0-.06-1.42c-1.46-1.87-2.77-4-4.58-5.42a75.72,75.72,0,0,0-9.15-6.09c-1.31-.77-3.19-.58-4.43-1.4-3.84-2.54-10.3,1.68-10.4,5.58a19.78,19.78,0,0,0,.4,5.92,26.33,26.33,0,0,1-.08,14.28c-2.42,9.25-5,18.44-7.69,27.63-1.87,6.53-4.1,13-5.8,19.52-1.07,4.13-1.18,8.5-2.18,12.65-2.59,10.69-5.37,21.33-8.23,31.95a10.32,10.32,0,0,1-2.53,4.21c-2.23,2.34-4.85,4.32-7,6.68a22.15,22.15,0,0,0-2.85,4.69,15.57,15.57,0,0,0-1.39,3.19,36,36,0,0,0-.65,3.9C5,178.84,4,180.86,4.5,182.5c1.13,4.07,2.89,8,4.49,12.17l1.88.19c-.83,4.68-1.6,9.18-2.42,13.67C6.9,217,5.21,225.44,3.79,233.92c-1.19,7.16-2.33,14.34-3,21.56a163.74,163.74,0,0,0-.49,16.88c0,1.51,1,3,1.52,4.68l.75-1.24Z"/><path d="M247.72,353.4l.43-2.91-3.05-2.72H245l-.87.17s0,.66.07.87a12.87,12.87,0,0,1,.09,1.51,1.66,1.66,0,0,1-.25,1,1.76,1.76,0,0,1-.75.16,1,1,0,0,1-.51-.1c-1.83-1.12-4-2.45-6-3.94a3.61,3.61,0,0,1-.88-1.32c-.15-.29-.3-.6-.49-.91l-.16-.26-.87.82-1.05-.5c-.87-.41-1.68-.8-2.47-1.25s-1.39-.75-2.1-1.11c-2.24-1.15-4.36-2.24-6-4.35a7.08,7.08,0,0,0-3-1.88,14.18,14.18,0,0,1-1.88-.89c-1.32-.8-2.61-1.64-3.9-2.48-1.63-1.06-3.32-2.16-5-3.16s-3.31-1.82-4.94-2.67c-1.36-.71-2.77-1.44-4.12-2.2s-2.9-1.75-4.28-2.64l-1.82-1.17c-.11-.07-.24-.13-.37-.2s-.5-.25-.54-.37c-.93-2.74-3.2-3.56-5.39-4.35-.49-.18-1-.36-1.46-.56a23.31,23.31,0,0,1-3-1.64c-1.35-.82-2.72-1.63-4.08-2.44-3.25-1.91-6.61-3.9-9.74-6.09-4.34-3-8.92-5.85-13.36-8.57-5.07-3.11-10.31-6.33-15.19-9.89-5.3-3.86-10.85-7.52-16.21-11.07-6.58-4.34-13.37-8.83-19.74-13.7-3.74-2.85-7.74-5.47-11.62-8-2.62-1.71-5.33-3.49-7.93-5.31s-5.33-4-7.88-6c-1.32-1-2.64-2.08-4-3.1-.55-.42-1.11-.81-1.68-1.2s-.92-.64-1.37-1l-4.59-3.41c-2.79-2.08-5.57-4.15-8.38-6.19-1-.7-2-1.34-2.93-2-1.25-.81-2.55-1.65-3.73-2.58a39.76,39.76,0,0,1-3.12-2.81c-.82-.78-1.66-1.58-2.53-2.32-2.46-2.08-5-4.11-7.63-6.27l-3.62-2.94-.31-.25-.09.39c-.33,1.39-.65,2.72-1,4-.65,2.72-1.28,5.29-1.82,7.87-1.76,8.29-3.58,16.87-5.23,25.42-.39,2.06-.62,4.18-.83,6.24-.14,1.32-.28,2.69-.47,4l-.13.94c-.38,2.73-.78,5.54-1.43,8.24a16.52,16.52,0,0,1-1.61,3.76l-.59,1.15q-2.55,5.08-5.13,10.18l-1.92,3.79c-2.63-.7-3.78-2.18-3.82-4.88v-.35l-3.61,1.27L2.55,275.3l-.71,1.17c-.14-.37-.29-.73-.45-1.09a8.3,8.3,0,0,1-.88-3A163.44,163.44,0,0,1,1,255.5C1.74,248,3,240.44,4,234c.93-5.56,2-11.21,3-16.66q.82-4.37,1.63-8.72c.56-3.1,1.1-6.2,1.66-9.36l.8-4.58-2-.2c-.45-1.17-.91-2.32-1.36-3.46a81.42,81.42,0,0,1-3.07-8.55,7.43,7.43,0,0,1,.35-3.61c.15-.59.31-1.2.4-1.79.06-.4.11-.8.17-1.2a18.79,18.79,0,0,1,.47-2.68A15.59,15.59,0,0,1,7.5,170c.21-.38.4-.76.6-1.14a15.28,15.28,0,0,1,2.21-3.5c1.13-1.21,2.39-2.34,3.62-3.44s2.35-2.1,3.43-3.24A10.5,10.5,0,0,0,20,154.38c3.47-12.88,6-22.74,8.23-31.95a59.18,59.18,0,0,0,1-6.14,55.61,55.61,0,0,1,1.14-6.5c1-3.93,2.24-7.88,3.43-11.69.8-2.56,1.62-5.21,2.37-7.83,2.69-9.35,5.3-18.5,7.69-27.63a26.46,26.46,0,0,0,.08-14.42,18.35,18.35,0,0,1-.4-5.52v-.32c.07-2.91,4-6.11,7.45-6.11a4.55,4.55,0,0,1,2.57.73,6.45,6.45,0,0,0,2.35.77A6.56,6.56,0,0,1,58,38.4a76.37,76.37,0,0,1,9.12,6.07,21.38,21.38,0,0,1,3.5,4c.34.47.69.93,1,1.39a1.53,1.53,0,0,1,0,1.19c-.4,1.24-.83,2.48-1.27,3.72-.51,1.46-1,3-1.51,4.48s-.91,2.86-1.37,4.29c-1.48,4.62-3,9.38-4.31,14.13-3.51,12.79-7,26-10.35,39.17-.9,3.53-1.61,7.13-2.36,10.93-.35,1.82-.72,3.69-1.13,5.63l-.13.63.52-.37,1.7-1.18a25.94,25.94,0,0,0,2.7-2q2.93-2.58,5.8-5.21c2.66-2.4,5.4-4.88,8.16-7.25,2.56-2.2,5.25-4.35,7.85-6.44,1.69-1.35,3.38-2.71,5-4.09,1-.8,1.91-1.68,2.82-2.52.51-.48,1-1,1.54-1.42l4.13-3.73c3.78-3.41,7.68-6.94,11.6-10.32a22.47,22.47,0,0,1,3.15-2.11,29.35,29.35,0,0,0,2.6-1.66c3.22-2.42,6.43-4.87,9.63-7.31,3.73-2.86,7.59-5.81,11.43-8.66l.33-.25c10-7.42,20.3-15.1,30.63-22.41a9.71,9.71,0,0,0,4-6.12c1.45-5.94,2.15-6.55,8.35-7.24l.63-.07a56.63,56.63,0,0,0,6.3-.93,4.69,4.69,0,0,1,1-.12c1.58,0,2.64,1,3.74,2.42.39.52.82,1,1.24,1.54a16.81,16.81,0,0,1,2.76,4,55.31,55.31,0,0,1,3.82,12c.61,3.85-3.56,7.64-7.85,8.77-3.64,1-7.09,3.07-10.31,5.14a76.09,76.09,0,0,0-6.62,5c-1,.83-2,1.65-3,2.44a9.54,9.54,0,0,1-.91.6c-.25.15-.5.3-.74.47l-6.58,4.62q-5.74,4-11.51,8.06c-1.13.79-2.29,1.55-3.45,2.31-1.76,1.16-3.58,2.37-5.3,3.65q-3.66,2.76-7.33,5.49c-9.1,6.81-18.51,13.85-27.57,21-4.58,3.63-9,7.59-13.33,11.41-2.66,2.37-5.41,4.81-8.16,7.15-2.27,1.93-4.64,3.8-6.93,5.61-2,1.57-4,3.2-6,4.85-2.84,2.37-5.61,4.91-8.29,7.37l-.83.76-3.29,3c-3.45,3.12-7,6.35-10.28,9.77-1.71,1.8-2.6,4.49-3.29,6.87a4.75,4.75,0,0,0,1.24,4c4.82,4.53,9.92,8.95,14.33,12.73,1,.89,2.13,1.71,3.2,2.51a41.38,41.38,0,0,1,4.36,3.57,82.79,82.79,0,0,0,12.29,9.41c1.44,1,2.88,1.93,4.3,2.92a54.43,54.43,0,0,1,4.62,3.79c1.32,1.16,2.67,2.35,4.1,3.41,10.9,8,22,16.19,32.76,24.06l13.64,10a11.9,11.9,0,0,1,1.69,1.37c4.22,4.38,9.38,7.57,14.37,10.65q1.78,1.09,3.57,2.22c3.64,2.32,7.22,4.88,10.68,7.35,1.54,1.1,3.09,2.21,4.64,3.3l.12.07s.15.09.16.12c1,3.33,3.64,4.91,6.18,6.44a24,24,0,0,1,3.42,2.34,6.3,6.3,0,0,1,1.6,2.31c.61,1.51,5.64,4.75,7.38,4.75l.21,0a3,3,0,0,0,.82-.29h0a38.18,38.18,0,0,0,5.95,6,52.34,52.34,0,0,1,4.14,3.88,35.2,35.2,0,0,0,8.66,6.34c1,.6,2.11,1.22,3.14,1.88-.63,3.31-.39,3.64,2.89,4.85a2.12,2.12,0,0,1,.74.75,4.85,4.85,0,0,0,.55.65l.94.89a25.89,25.89,0,0,0,3,2.56c1.13.79,2.34,1.5,3.51,2.18.87.51,1.74,1,2.58,1.56,1.52,1,3,2,4.51,3,.87.59,1.74,1.19,2.62,1.77L236,333l5.32,3.55q2.19,1.48,4.36,3l1.76,1.22c-1.47,2.7-1.08,4.43,1.43,6.52a16.88,16.88,0,0,1,1.29,1.25,16.9,16.9,0,0,0,1.21,1.18c.76.66,1.57,1.29,2.43,2l1.13.88c-.18.39-.35.39-.42.39a2.07,2.07,0,0,1-.88-.4,3,3,0,0,0-1.46-.58,1.27,1.27,0,0,0-.6.15l-.06,0-.89,1.5Z"/><path class="cls-3" d="M179.18,32.88c1.48,0,2.45.89,3.54,2.32.4.53.83,1,1.25,1.55a16.66,16.66,0,0,1,2.71,4,53.89,53.89,0,0,1,3.81,11.95c.6,3.71-3.48,7.39-7.66,8.49-3.68,1-7.15,3.09-10.38,5.17a75.26,75.26,0,0,0-6.65,5c-1,.81-2,1.64-3,2.43a8.54,8.54,0,0,1-.89.58c-.25.16-.51.31-.75.48l-6.54,4.59q-5.78,4.07-11.55,8.09c-1.13.79-2.31,1.57-3.44,2.32-1.77,1.16-3.59,2.36-5.32,3.65-2.44,1.84-4.88,3.66-7.32,5.49-9.1,6.81-18.52,13.85-27.58,21-4.59,3.63-9,7.59-13.35,11.42-2.66,2.36-5.41,4.8-8.16,7.14-2.25,1.92-4.62,3.8-6.92,5.61-2,1.57-4,3.19-6,4.85-2.85,2.37-5.62,4.92-8.31,7.39l-.81.75q-1.64,1.5-3.29,3c-3.46,3.13-7,6.36-10.3,9.79-1.75,1.84-2.65,4.56-3.35,7a5,5,0,0,0,1.31,4.24c4.84,4.54,9.93,9,14.33,12.74,1,.89,2.15,1.72,3.22,2.52A40.08,40.08,0,0,1,62.06,200a83.17,83.17,0,0,0,12.33,9.44c1.42.94,2.88,1.92,4.3,2.92a53.58,53.58,0,0,1,4.6,3.77c1.32,1.16,2.68,2.36,4.11,3.42,10.88,8,22,16.16,32.7,24l13.28,9.74.42.3a11.89,11.89,0,0,1,1.66,1.35c4.24,4.4,9.41,7.59,14.42,10.68,1.19.73,2.38,1.47,3.56,2.22,3.64,2.32,7.21,4.87,10.67,7.34,1.55,1.11,3.09,2.21,4.65,3.3a.57.57,0,0,0,.13.08l.07.05c1.06,3.38,3.71,5,6.27,6.52a23.53,23.53,0,0,1,3.39,2.31,6.15,6.15,0,0,1,1.53,2.22c.65,1.6,5.77,4.9,7.61,4.9l.25,0a2.77,2.77,0,0,0,.72-.24,39.08,39.08,0,0,0,5.87,5.91,49,49,0,0,1,4.11,3.86,35.27,35.27,0,0,0,8.72,6.38c1,.58,2,1.17,3,1.79-.61,3.28-.27,3.74,3.07,5,.2.07.42.37.63.65a4.16,4.16,0,0,0,.58.69l.93.89a26.69,26.69,0,0,0,3,2.59c1.14.79,2.35,1.5,3.52,2.19.86.49,1.74,1,2.58,1.55,1.51,1,3,2,4.5,3,.87.59,1.74,1.19,2.62,1.77l3.94,2.63c1.78,1.18,3.56,2.36,5.33,3.56,1.46,1,2.93,2,4.35,3l1.59,1.1c-1.42,2.72-1,4.49,1.59,6.64.44.37.84.78,1.27,1.22s.79.82,1.22,1.2c.77.66,1.59,1.3,2.45,2l1,.75c0,.05-.06.07-.09.07a2.26,2.26,0,0,1-.75-.36,3.15,3.15,0,0,0-1.59-.62,1.58,1.58,0,0,0-.71.17l-.13.07-.07.12-.78,1.31-.93-.08-1.5-.13.35-2.32,0-.19,0-.26-.2-.18-2.86-2.56-.19-.17-.24.05-.46.09-.2,0-.43.08,0,.44q0,.33.06.66c0,.51.09,1,.08,1.47a2.34,2.34,0,0,1-.15.82,1.6,1.6,0,0,1-.6.11.73.73,0,0,1-.38-.07c-1.83-1.11-4-2.44-6-3.92a3.49,3.49,0,0,1-.81-1.23c-.15-.3-.3-.61-.49-.93l-.32-.53-.45.43-.53.49-.89-.43c-.86-.4-1.68-.79-2.46-1.24s-1.41-.76-2.1-1.12c-2.22-1.13-4.31-2.2-5.89-4.27a7.25,7.25,0,0,0-3.13-2,15.63,15.63,0,0,1-1.84-.87c-1.31-.8-2.62-1.66-3.89-2.48-1.64-1.06-3.33-2.16-5.05-3.17s-3.32-1.83-5-2.68c-1.36-.7-2.76-1.43-4.11-2.18s-2.88-1.75-4.27-2.64c-.6-.39-1.21-.79-1.82-1.17l-.39-.21a3.16,3.16,0,0,1-.41-.23c-1-2.85-3.3-3.69-5.54-4.51-.48-.17-1-.35-1.45-.55a22.3,22.3,0,0,1-3-1.62c-1.35-.83-2.72-1.63-4.09-2.44-3.24-1.92-6.59-3.9-9.71-6.08-4.35-3-8.94-5.86-13.38-8.58-5.06-3.11-10.3-6.33-15.18-9.88-5.29-3.86-10.84-7.52-16.21-11.07-6.57-4.34-13.36-8.83-19.73-13.7-3.74-2.86-7.75-5.48-11.63-8-2.62-1.71-5.33-3.48-7.93-5.31s-5.33-4-7.87-6c-1.3-1-2.64-2.08-4-3.1-.55-.43-1.13-.83-1.69-1.21s-.92-.63-1.36-1l-4.54-3.37c-2.75-2.06-5.61-4.18-8.44-6.24-1-.69-2-1.34-2.94-2-1.25-.81-2.53-1.64-3.71-2.56a39.16,39.16,0,0,1-3.1-2.8c-.82-.78-1.66-1.59-2.54-2.33-2.46-2.08-5-4.12-7.64-6.28l-3.61-2.93-.62-.51-.19.78c-.32,1.38-.64,2.71-1,4-.66,2.73-1.28,5.3-1.83,7.89-1.76,8.28-3.57,16.84-5.22,25.42-.4,2.07-.62,4.2-.84,6.26-.14,1.32-.28,2.69-.47,4l-.13.94c-.38,2.72-.77,5.53-1.42,8.23a16.6,16.6,0,0,1-1.59,3.7l-.6,1.15q-2.53,5.07-5.11,10.15L13,285c-2.4-.7-3.4-2.06-3.44-4.59v-.7l-.65.23-.74.26-2.35.82L3,275.57l-.41-.78-.46.75-.22.37-.27-.63a8.14,8.14,0,0,1-.86-2.92v-.09a161.61,161.61,0,0,1,.49-16.74c.74-7.52,2-15.05,3-21.53.93-5.56,2-11.2,3-16.66.55-2.91,1.1-5.81,1.63-8.72.57-3.08,1.1-6.11,1.66-9.32.25-1.44.5-2.89.76-4.35l.09-.53-.53-.06-1.57-.15c-.43-1.13-.87-2.23-1.31-3.32A84.91,84.91,0,0,1,5,182.37a7.23,7.23,0,0,1,.35-3.48c.16-.6.31-1.22.41-1.82.06-.4.11-.8.16-1.21a19.9,19.9,0,0,1,.47-2.64,15.35,15.35,0,0,1,1.35-3.08c.21-.38.41-.76.6-1.15a15.44,15.44,0,0,1,2.17-3.44c1.12-1.2,2.38-2.33,3.6-3.42s2.36-2.11,3.45-3.25a11.07,11.07,0,0,0,2.66-4.43c3.45-12.87,6-22.73,8.22-32a60.06,60.06,0,0,0,1-6.16,57,57,0,0,1,1.13-6.48c1-3.92,2.24-7.87,3.43-11.68.8-2.56,1.62-5.21,2.37-7.83C39.09,81,41.7,71.82,44.09,62.7a26.65,26.65,0,0,0,.08-14.55,18.1,18.1,0,0,1-.39-5.44v-.33c.07-2.79,3.84-5.86,7.2-5.86a4.3,4.3,0,0,1,2.43.69,6.62,6.62,0,0,0,2.44.8,6.43,6.43,0,0,1,2,.61A74.69,74.69,0,0,1,67,44.67a20.61,20.61,0,0,1,3.46,3.95c.34.47.69.94,1,1.39a1.45,1.45,0,0,1,0,1c-.41,1.24-.85,2.5-1.27,3.71-.51,1.47-1,3-1.52,4.49s-.91,2.87-1.37,4.3c-1.48,4.61-3,9.38-4.32,14.14-3.5,12.78-7,26-10.35,39.17-.9,3.54-1.61,7.14-2.35,11-.36,1.81-.73,3.68-1.13,5.62l-.26,1.25,1-.74c.61-.44,1.17-.82,1.69-1.17a27.87,27.87,0,0,0,2.72-2c2-1.72,3.91-3.49,5.81-5.21,2.65-2.4,5.39-4.88,8.15-7.25,2.56-2.2,5.25-4.35,7.85-6.44,1.66-1.33,3.38-2.71,5.05-4.09,1-.8,1.92-1.68,2.82-2.53l1.55-1.42L89.67,100c3.78-3.42,7.69-7,11.61-10.33a21.92,21.92,0,0,1,3.11-2.09A26.92,26.92,0,0,0,107,85.94c3.22-2.42,6.48-4.91,9.63-7.31,3.73-2.86,7.59-5.81,11.43-8.66l.29-.22c10-7.44,20.33-15.12,30.66-22.44a9.92,9.92,0,0,0,4.11-6.26c1.41-5.78,2.1-6.38,8.14-7l.63-.07a57.19,57.19,0,0,0,6.33-.94,4.62,4.62,0,0,1,1-.11m0-.5a4.57,4.57,0,0,0-1.06.13,61.29,61.29,0,0,1-6.9,1c-6.27.7-7.1,1.4-8.57,7.43a9.43,9.43,0,0,1-3.92,6c-10.44,7.39-20.7,15-31,22.67-7.07,5.26-14,10.68-21.06,16-1.83,1.37-4,2.3-5.76,3.78-5.33,4.59-10.51,9.35-15.74,14.05-1.45,1.31-2.84,2.69-4.35,3.94-4.28,3.53-8.69,6.92-12.91,10.54-4.73,4.06-9.28,8.33-14,12.45-1.18,1-2.55,1.86-4.37,3.15,1.25-6,2.15-11.35,3.48-16.55q5-19.62,10.35-39.16c1.69-6.19,3.74-12.29,5.68-18.42.87-2.75,1.89-5.45,2.78-8.2a1.82,1.82,0,0,0-.06-1.42c-1.46-1.87-2.77-4-4.58-5.42a75.72,75.72,0,0,0-9.15-6.09c-1.31-.77-3.19-.58-4.43-1.4A4.79,4.79,0,0,0,51,36c-3.58,0-7.62,3.27-7.7,6.35a19.78,19.78,0,0,0,.4,5.92,26.33,26.33,0,0,1-.08,14.28c-2.42,9.25-5,18.44-7.69,27.63-1.87,6.53-4.1,13-5.8,19.52-1.07,4.13-1.18,8.5-2.18,12.65-2.59,10.69-5.37,21.33-8.23,31.95a10.32,10.32,0,0,1-2.53,4.21c-2.23,2.34-4.85,4.32-7,6.68a22.15,22.15,0,0,0-2.85,4.69,15.57,15.57,0,0,0-1.39,3.19,36,36,0,0,0-.65,3.9C5,178.84,4,180.86,4.5,182.5c1.13,4.07,2.89,8,4.49,12.17l1.88.19c-.83,4.68-1.6,9.18-2.42,13.67C6.9,217,5.21,225.44,3.79,233.92c-1.19,7.16-2.33,14.34-3,21.56a163.74,163.74,0,0,0-.49,16.88c0,1.51,1,3,1.52,4.68.37-.6.59-1,.75-1.24l3.06,5.87,3.49-1.23c.05,2.76,1.19,4.43,4.2,5.18,2.39-4.74,4.79-9.44,7.14-14.16a24.67,24.67,0,0,0,2.23-5c.72-3,1.12-6.12,1.56-9.21.48-3.41.65-6.88,1.3-10.26,1.63-8.49,3.43-16.95,5.22-25.4.81-3.8,1.77-7.57,2.79-11.89,4.11,3.36,7.72,6.23,11.25,9.21,1.94,1.64,3.65,3.57,5.65,5.14s4.49,3,6.67,4.55c4.35,3.16,8.64,6.4,13,9.6,1,.74,2.06,1.41,3,2.16,4,3,7.78,6.24,11.85,9.1,6.45,4.53,13.29,8.53,19.55,13.31,11.58,8.86,24.18,16.2,36,24.77,9.15,6.67,19.26,12,28.56,18.47,4.43,3.1,9.2,5.72,13.83,8.54a24.6,24.6,0,0,0,3.07,1.66c2.59,1.08,5.61,1.53,6.71,4.75.1.31.65.48,1,.7,2,1.28,4,2.64,6.12,3.82,3,1.68,6.1,3.14,9.06,4.87s5.92,3.8,8.93,5.63c1.59,1,3.81,1.36,4.84,2.71,2.16,2.84,5.29,3.9,8.13,5.53,1.17.67,2.42,1.2,3.69,1.83l.78-.73a8.29,8.29,0,0,0,1.43,2.3c1.92,1.42,3.95,2.71,6,3.95a1.24,1.24,0,0,0,.64.14,1.94,1.94,0,0,0,.86-.19c.28-.14.37-.79.39-1.22,0-.73-.09-1.46-.14-2.18L245,348l2.87,2.56c-.16,1.1-.32,2.18-.45,3l3.27.27.94-1.57a1.07,1.07,0,0,1,.48-.12c.85,0,1.69,1,2.34,1,.28,0,.53-.18.72-.72-1.42-1.12-2.6-2-3.7-3-.88-.76-1.61-1.68-2.5-2.43-2.48-2.07-2.81-3.66-1.26-6.4-2.1-1.46-4.19-2.93-6.31-4.36-3.08-2.08-6.19-4.12-9.28-6.18-2.37-1.6-4.72-3.25-7.12-4.8-2-1.29-4.14-2.37-6.08-3.73a37.13,37.13,0,0,1-3.88-3.44c-.5-.45-.82-1.23-1.38-1.44-3.19-1.18-3.34-1.37-2.69-4.74-4-2.59-8.44-4.51-11.9-8.27-3.16-3.44-7.29-6-10.19-10.05a4.71,4.71,0,0,1-1,.37h-.17c-1.69,0-6.61-3.27-7.15-4.59a6.51,6.51,0,0,0-1.66-2.4c-3.23-2.84-8.08-3.89-9.53-8.68,0-.13-.24-.22-.37-.32-5.1-3.57-10.09-7.31-15.34-10.65-6.21-3.95-12.71-7.45-17.89-12.83a16.21,16.21,0,0,0-2.14-1.71c-15.33-11.24-30.69-22.44-46-33.74-3-2.24-5.65-5-8.72-7.2-5.64-3.95-11.6-7.42-16.57-12.31-2.29-2.26-5.12-4-7.57-6.09-4.84-4.16-9.66-8.35-14.32-12.72a4.51,4.51,0,0,1-1.17-3.74c.69-2.39,1.58-5,3.24-6.77,4.27-4.48,9-8.55,13.55-12.74,3-2.75,6-5.52,9.11-8.13,4.26-3.56,8.72-6.87,13-10.46,7.21-6.13,14.08-12.68,21.49-18.55,11.45-9.07,23.21-17.73,34.89-26.51,2.82-2.11,5.85-3.94,8.75-6q9.06-6.31,18.09-12.68c.54-.38,1.14-.67,1.65-1.07,3.21-2.49,6.25-5.25,9.65-7.44,3.2-2.06,6.62-4.15,10.24-5.11,4.16-1.09,8.69-4.88,8-9a54.75,54.75,0,0,0-3.83-12.06c-.86-2.09-2.63-3.8-4-5.65-1.05-1.38-2.17-2.52-3.94-2.52Z"/><path class="cls-3" d="M432.59,213.39a1.59,1.59,0,0,1-.81-1c-.08-1.68-.07-3.4-.06-5.06,0-.51,0-1,0-1.55h.36l.19,3.73,1.71-.32a2.38,2.38,0,0,0,.05.26,4.2,4.2,0,0,1,.14,1.07,4.9,4.9,0,0,1-.45,1.93,1.85,1.85,0,0,1-1.14.95Z"/><path d="M432,208.25l0,1,0,.57.56-.1,1.18-.22v0a4.1,4.1,0,0,1,.13,1,4.82,4.82,0,0,1-.41,1.82,1.87,1.87,0,0,1-.9.82,1.58,1.58,0,0,1-.59-.76c-.06-1.37-.07-2.76-.06-4.13m.36-2.74-.85,0c0,2.29-.06,4.58,0,6.86,0,.46.7,1.24,1.06,1.24h0a2.06,2.06,0,0,0,1.35-1.08,4.8,4.8,0,0,0,.47-2,7.9,7.9,0,0,0-.23-1.65l-1.67.32c-.06-1.18-.13-2.44-.19-3.69Z"/><path class="cls-3" d="M521.67,141.48c-1-1.45-.95-2.13.49-3.37Z"/><path d="M521.81,138.77l-.3,2a1.43,1.43,0,0,1,.3-2m.69-1.27c-2.18,1.74-2.3,2.55-.67,4.6l.67-4.6Z"/><path class="cls-1" d="M508.79,110.84c-1-.8-1.4-1.26-1.93-1.61-3.4-2.19-6.61-4.8-10.25-6.44-8.2-3.7-16.47-3.71-24.17,1.47A79,79,0,0,0,461,113c-7.14,7-14.84,13.36-21.06,21.3a129.82,129.82,0,0,0-24.54,52.11c-1,4.52-1.35,9.19-2.11,13.76a45,45,0,0,0,.28,18.06c1.06,4.44,2.74,8.8,6.5,11.44,4,2.79,8.37,6,12.94,6.73,6.7,1,13.77.44,20.59-.3,7.09-.76,13.74-3.26,19-8.49,2.53-2.53,5.14-5,7.46-7.71,2.91-3.41,5.55-7,8.33-10.57.88-1.12,1.83-2.2,3.13-3.76,1.69,4.58,3.58,8.44,4.51,12.52,1.2,5.32,4.28,8.37,9.27,9.91,1.75.55,3.47-.13,5.42.37,3.31.85,7.1.48,10.58-.06,4.66-.72,9.59-1.25,12.82-5.52a5.77,5.77,0,0,1,1.35-1.09c3.3-2.35,7-4.29,8.47-8.48a11.06,11.06,0,0,1,1.74-2.71c2.11-2.77,4.25-5.5,6.46-8.35L549.67,200l2.4-1.55a1.77,1.77,0,0,1-.4-.58c-.15-.69-.23-1.39-.33-2.08a10.7,10.7,0,0,0,1.43.63,1.63,1.63,0,0,0,.89-.11c.12,0,.21-.29.24-.46a9.32,9.32,0,0,1,.46-2.9c1.27-2.4,2.76-4.69,4.28-7.2-.48-.12-.76-.1-.84-.22a29.45,29.45,0,0,1-1.67-2.6,1.79,1.79,0,0,1,.86-.7c.92-.24,1.88-.35,2.86-.51l.33,1c1.7-2.14,4.12-3.8,2.24-6.94a2.89,2.89,0,0,1-.18-2.11,3.64,3.64,0,0,1,1.33-1.71c.39-.3,1-.22,1.59-.31-.13-.44-.18-1.2-.41-1.26a6.44,6.44,0,0,0-2,.14l1.2-3.76-2.38,1.05-.5-.34c.67-1.38,1.44-2.72,2-4.15.33-.84.68-2.45.39-2.61a9.92,9.92,0,0,0-3.32-.79,7.74,7.74,0,0,0-1.43,0,60.17,60.17,0,0,0-5.73,5.67c-2.32,2.95-4.19,6.26-6.38,9.33-4.66,6.53-9.57,12.9-14.06,19.55-3.12,4.62-5.67,9.62-9.34,13.86-1.81,2.1-3.94,3.93-6.31,6.27-.52-1.63-.8-2.39-1-3.17q-1.7-6.42-3.35-12.85a4.82,4.82,0,0,1-.09-1.47c.3-4.71.67-9.41.92-14.13.11-2.06,0-4.14,0-6.2a17.06,17.06,0,0,1,.51-3.16c.9-3.87,1.36-7.93,2.92-11.52,1.32-3,1.12-6.38,3.4-9.35,2.08-2.72,2.17-6.95,3.16-10.51,2.82-10.12,5.53-20.27,8.52-30.33,1.71-5.76,3.87-11.38,5.82-17.06.19-.55.32-1.12.47-1.68,2.68-9.75,5.24-19.52,8.07-29.22,2.26-7.78,4.86-15.46,7.27-23.19.81-2.59.29-4.06-1.84-4.6-4.57-1.17-9.15-2.38-13.8-3.09-4.9-.75-7.57,1.38-9,6.12-1.91,6.16-4,12.26-5.92,18.43-3.72,12-7.54,24-10.94,36C510.5,99,509.91,104.72,508.79,110.84Zm-72.87,83.57c-1.21,1.28-2.19,2.32-3.53,3.72,0-3.9-.05-7.37,3.11-10.43.24,1.72.49,3.44.63,4.45,1-3.28,2.28-7.18,3.53-11.08l-.89-.44-3.33,5.82-.82-.37c-.44-2.85,1.14-5.21,2.12-7.73s1.7-4.88,2.66-7.28a6.17,6.17,0,0,1,1.45-1.94,1.09,1.09,0,0,1,1-.16,1.17,1.17,0,0,1,.43,1c-.36,1.09-.9,2.12-1.3,3.2-.69,1.88-1.32,3.78-2,5.67l.87.33,6.24-15.74-.48-.23-3.45,4.94c-.58-4.85,5.68-15.69,9.54-17.3,0,.87-.08,1.6-.15,2.86.89-1.82,3.21-2.66,1.25-4.83-.31-.34.12-1.35.21-2a6.24,6.24,0,0,0,5.89-5.83c-.38,0-.76.08-1.13.1-.06,0-.12-.1-.25-.22a3.75,3.75,0,0,1,.09-.61,38.15,38.15,0,0,0,1.61-6c.26-2.53,1-3.33,4-3.44a2.23,2.23,0,0,0,1.39-1c1.2-1.66,2.23-3.44,3.48-5.06a39.44,39.44,0,0,0,3.87-5.24,7,7,0,0,1,.49-2.34,7.09,7.09,0,0,1,2.07-2.12c3.08-2,6.21-3.92,9.34-5.82,1.78-1.08,2.89-.55,3.53,1.44,1.72,5.36.89,10.63-.28,15.94-1,4.66-1.81,9.37-2.78,14.05-.44,2.13.65,3.09,2.48,3.55,1.51.38,3,.67,4.55,1.05.63.16,1.65.31,1.76.69.5,1.63,1.45,1.8,3,1.71,1.32-.08,1.83,2.12.88,4-4,7.72-7.56,15.71-12.18,23-7.6,12.07-15.59,23.93-24,35.44a62.5,62.5,0,0,1-15.47,14.59,19,19,0,0,1-2.82,1.57c-2,.88-3.59.9-4.4-1.69-.48-1.51-1.35-2.88-3.38-2.91-.58,0-1.63-.72-1.64-1.11a2.44,2.44,0,0,1,1-2c1.54-.59,1.35-1.75,1.21-2.84a59.29,59.29,0,0,1,.47-19A15.6,15.6,0,0,0,435.92,194.41Z"/><polygon class="cls-3" points="446.48 160.84 449.4 157.07 449.93 157.47 447.11 161.31 446.48 160.84"/><path d="M449.45,157.42l.13.1L447.05,161l-.11-.08-.11-.09,0,0,2.6-3.35m-.1-.69-3.23,4.16,1,.78c1-1.42,2.07-2.84,3.11-4.25l-.92-.69Z"/><path class="cls-3" d="M432.59,213.39a1.59,1.59,0,0,1-.81-1c-.08-1.68-.07-3.4-.06-5.06,0-.51,0-1,0-1.55h.36l.19,3.73,1.71-.32a2.38,2.38,0,0,0,.05.26,4.2,4.2,0,0,1,.14,1.07,4.9,4.9,0,0,1-.45,1.93,1.85,1.85,0,0,1-1.14.95Z"/><path d="M432,208.25l0,1,0,.57.56-.1.08,0,1.1-.2v0a4.1,4.1,0,0,1,.13,1,4.82,4.82,0,0,1-.41,1.82,1.87,1.87,0,0,1-.9.82,1.58,1.58,0,0,1-.59-.76c-.06-1.37-.07-2.76-.06-4.13m.36-2.74-.85,0c0,2.29-.06,4.58,0,6.86,0,.46.7,1.24,1.06,1.24h0a2.06,2.06,0,0,0,1.35-1.08,4.8,4.8,0,0,0,.47-2,7.9,7.9,0,0,0-.23-1.65l-1.67.32c-.06-1.18-.13-2.44-.19-3.69Z"/><path class="cls-3" d="M521.67,141.48c-1-1.45-.95-2.13.49-3.37Z"/><path d="M521.81,138.77l-.3,2a1.43,1.43,0,0,1,.3-2m.69-1.27c-2.18,1.74-2.3,2.55-.67,4.6l.67-4.6Z"/><polygon class="cls-3" points="446.48 160.84 449.4 157.07 449.93 157.47 447.11 161.31 446.48 160.84"/><path d="M449.45,157.42l.13.1L447.05,161l-.11-.08-.11-.09,0,0,2.6-3.35m-.1-.69-3.23,4.16,1,.78c1-1.42,2.07-2.84,3.11-4.25l-.92-.69Z"/></svg>